<svg xmlns="http://www.w3.org/2000/svg" id="Livello_2" data-name="Livello 2" width="100" height="40" viewBox="0 0 313.31 124.74"><defs><style>.cls-1{fill:#1d1d1b}</style></defs><g id="Livello_1" data-name="Livello 1"><path d="M94.87 109.35h.1l7.1 15.24h-2.41l-1.45-3.14h-6.63l-1.45 3.14H87.7l7.16-15.24Zm.07 4.59-2.51 5.67h4.98c-.56-1.25-1.38-3.14-2.47-5.67ZM42.71 78.43c2.17.12 4.34.07 6.51-.04 2.92-.15 5.69-.63 8.02-2.45.62-.48 1.11-.97 1.4-1.67.69-1.69.82-3.42.62-5.19-.29-2.66-2.4-4.78-5.67-5.73-2.33-.67-4.91-1.14-7.43-1.22-4.71-.15-9.24.39-13.59 2.16-2.39 1.05-3.25 3.37-3.58 4.25-.83 2.19-.57 4.24 1.07 6.07 1.85 2.06 4.25 3.18 7.09 3.56 1.85.25 3.72.21 5.58.26m3.67 15.2c-3.83.08-25.65.81-36.66-5.24C-.78 83.3-.2 73.2.3 71.3c2.48-14.78 16.56-19.48 21.03-20.81 2.64-.79 5.37-1.13 8.06-1.65 4.61-.89 9.29-1.19 13.99-1.33 4.89-.14 9.78-.14 14.68-.2 1.33-.02.8-3.19.8-4.02.02-4.96.18-9.24-.24-14.19-.38-4.4-.13-7.2-.49-11.6-.4-20.51 1.94-24.85 9.88-2.99 2.96 8.06 5.71 15.92 5.99 16.63 2.09 5.26 3.79 10.63 5.48 16.01.29.93 2.43 7.33 3.01 8.93 1.52 4.23 2.51 8.59 3.72 12.9.81 2.9 2.68 11.85.95 14.73-5.24 10.45-38.01 9.92-40.76 9.92M252.03 56.99c-1.31.55-6.58 2.1-7.28 7.24-.03.2-.03 1.27.26 1.37.43.62 4.73-.92 5.62-1.14 3.52-.87 7.25-1.86 10.77-2.72 1.05-.26 2.18-.6 3.19-.98.86-.23.23-.96.09-1.32-2.15-5.64-11.76-2.82-12.65-2.44m-20.64 21.51c.07.44 0 1.57.46 1.64 3.07-.59 3.25-1.68 3.11-3.14-.04-.44-.44-6.62.16-11 .9-6.56 3-11.49 9.14-14.97 4.32-2.44 16.62-4.85 24.1.62 1.01.73 3.99 3.48 5.89 8.53.54 1.09 1.05 2.9.91 4.04-.43 1.66-8.77 3.81-11.78 4.55-3.64.9-7.31 1.7-10.89 2.75-1.44.42-3.75.95-5.21 1.42-1.18.29-2.04.43-1.9 2.4.16 2.27.33 8.19 4.17 8.87 2.99.53 7.55.15 10.32-1.11 4.52-2.05 8.34-4.88 11.62-8.45 3.73-4.07 5.86-4.03 6.96-3.46 1.08.56 1.7 1.47 2.07 2.54.63 1.85 1.51 8.22 6.15 9.74 1.73.56 3.73 1.01 5.54 1.25 1.41.18 3.26-.04 4.65-.14 5.28-.37 6.17-2.92 5.75-5.61-.45-2.92-11.1-6.71-14.49-8.46-2.05-1.06-8.89-4.08-8.29-10.55.5-5.45 3.08-7.81 7.34-10.09 3.76-2.15 13.9-1.62 18.03.06 1.42.58 10.03 2.54 7.44 7.82-.38.77-.64 1.46-1.48 1.82-1.05.45-2.13.66-3.28.42-2.5-.52-4.65-1.77-7.14-2.31-2.34-.51-6.2-1.07-8.42-.15-.54.22-4.27 2.56-.05 5.2.36.23 14.66 6.37 18.03 9.96 1.83 1.86 3.18 5.31 2.99 7.71-.17 2.19-.49 10.41-9.99 12.34-4.47.91-10.98.77-14.69.39-4.24-.44-8.54-2.79-9.68-3.64-1.43-1.06-3.02-3.31-3.7-4.88-.32-.74-.4-.75-.98-.15-1.33 1.38-2.92 2.89-4.53 3.97-1.29.86-2.74 1.96-7.31 3.51-3.55.95-8.35 1.99-15.08 1.07-1.65-.23-5.47-2.4-6.65-3.48-1-.92-1.74-2.98-3.14-2.11-.74.25-5.34 2.85-8.13 4.12-1.98.9-4.7.74-5.14-1.09-.77-2.59-1.41-8.46-1.5-10.18-.17-3.52-1.51-16.11-1.73-18.9-.49-4.23-4.11-4.21-6.16-3.94-1.88.25-7.22.94-8.68 3.18-.43.66-1.1 1.9-1.12 4.04-.05 5.03.45 20.59.79 24.67.18 2.2-.71 3.19-3 3.73-.64.15-2.01.3-2.67.28-2.36-.07-3.38-.8-3.52-2.98-.21-3.26.04-4.26-.18-7.52 0-.11.03-1.36-2.43.84-2.26 2.08-4.69 3.87-6.93 5.96-1.13 1.05-2.33 2-3.6 2.89-.83.58-1.69 1.08-2.78.64-2.25-.54-2.52-5.31-2.65-6.74-.47-5.41-.92-10.65-1.34-16.06-.33-4.37-.71-8.87-.85-13.25-.11-3.89.81-6.85 1.33-7.52.98-1.26 5.46-2.47 6.92.79.38.96.47 2.44.53 3.44.34 6.03 1.36 25.19 1.96 25.13.93-.09 6.72-5.1 8.25-6.74.93-.99.93-2.91.91-4.27-.08-4.53-.37-9.51-.24-14.04.03-1.22-.12-2.66 0-3.87.26-2.62 3.63-4.49 7.13-3.58.72.19 1.14.58 1.26 1.26.15.89.28 1.78.46 2.66.15.76.53.98 1.3.74.36-.11.69-.32 1.02-.51 6.9-3.35 14-2.69 18.12-.93 2.86 1.22 4 3.85 4.18 5.31.53 4.25.71 7.8 1.19 12.29.13 1.21 1.13 11.14 1.14 11.24M184.9 35.56c.02 1.47-.43 2.84-1.06 4.16-.65 1.36-2.66 2.04-4.42 1.52-1.39-.41-2.55-1.18-3.09-2.44-1.04-2.41-1.01-4.75.82-6.91.89-1.06 2.04-1.37 3.41-1.17 2.42.36 4.56 2.38 4.35 4.84M109.4 83.94c-5.5 2.25-13.15 1.51-9.8-5.58 1.56-3.29 4.49-5.86 7.61-8.01 4.01-2.75 5.68-3.7 6.24-2.09.06.17 2.83 5.4 3.68 7.86 2.25 5.16-6.98 7.52-7.73 7.82m65.59-36.25c-.13-1.03-.4-1.85-1.5-2.15-.48-.13-2.02-.9-3.19-.07-1.39.98-2.5 2.24-3.54 3.56-4.2 5.31-7.38 11.13-10.18 17.15-1.26 2.7-2.62 5.37-3.96 8.04-.29.58-.64 1.15-1.04 1.68-.76 1.04-.96 1.04-1.86.05-.65-.72-1.16-1.53-1.61-2.37-3.37-6.39-6.82-12.75-9.88-19.27-.63-1.35-1.37-2.66-2.06-3.98-.17-.32-.08-.23-.29-.52-.5-.68-1.76-1.09-3.16-.61-1.05.4-3.73 1.29-6.59 2.41s0 0-.02 0c-2.22.87-4.54 1.89-6.31 2.93-.68.32-1.75.96-2.5 1.33-.19-.1-2.79-5.2-4.75-7.12-1.45-1.43-3.03-2.51-5.12-2.7-1.41-.13-2.89-.05-4.28.27-3.51.8-7.17 3.01-9.97 5.33-4.88 4.04 1.34 8.05 4.33 5.95 2.06-1.44 2.79-1.92 4.94-3.07 1.46-.78 3.39-.77 4.77.22 1.31.94 1.88 2.69 2.35 3.98.25.68.23.94-.49 1.31-.47.24-5.22 3-6 3.64-4.69 3.24-11 6.45-12.98 16.66-.47 2.42-.78 9.65 5.35 11.72 3.4 1.12 7.89 1.33 11.9.45 3.36-.94 9.2-2.51 12.13-4.48.13-.08.26-.15.4-.22 1.05-.52 1.21-.46 1.73.55.72 1.39 1.37 2.37 2.32 3.65 1.03 1.38 3.76 1.32 4.78.97 5.75-1.99 0-11.82-.24-12.35-2.06-4.66-5.16-11.4-7.53-16.28-.36-.74.83-1.34 1.73-1.83 3.02-1.63 3.67-2.01 7.41-3.17.99-.38 1.21-.05 1.67.82 1.68 3.2 3.47 8.05 5.02 11.3 2.48 5.23 5.41 11.5 8.33 16.55.81 1.41 1.75 2.71 2.91 3.88 1.56 1.56 3.25 1.76 5.55.91.71-.26 1.88-1.6 2.18-2.25 1.22-2.64 1.97-3.76 2.99-6.48.74-1.97 7.25-16.75 9.96-21.44 2.35-4.07 4.1-8.37 5.93-12.64.32-.74.48-1.52.37-2.32M246.32 109.47h2.24v12.98h7.8v2.02h-10.04v-15ZM267.73 109.47h2.24v15h-2.24v-15ZM281.32 109.47h10.26v1.96h-8.02v5h7.14v1.96h-7.14v6.08h-2.24v-15ZM302.7 109.47H313v1.94h-8.06v4.47h7.18v1.92h-7.18v4.69h8.37v1.98H302.7v-15ZM157.33 123.73c-1.17-.67-2.09-1.59-2.74-2.76s-.99-2.48-.99-3.92.34-2.74 1.02-3.95c.68-1.2 1.6-2.15 2.78-2.85 1.17-.69 2.46-1.04 3.86-1.04s2.74.34 3.9 1.01c1.16.67 2.06 1.6 2.72 2.77s.99 2.48.99 3.92-.34 2.76-1.02 3.96c-.68 1.2-1.6 2.14-2.77 2.84-1.16.69-2.44 1.04-3.83 1.04s-2.75-.34-3.92-1.01Zm6.64-1.73c.81-.5 1.44-1.19 1.9-2.07.46-.88.68-1.86.68-2.95s-.23-2.09-.68-2.97c-.46-.88-1.09-1.57-1.9-2.07-.81-.5-1.72-.76-2.72-.76s-1.94.25-2.74.76c-.81.5-1.44 1.19-1.9 2.07-.46.88-.68 1.87-.68 2.97s.23 2.07.68 2.95c.46.88 1.09 1.57 1.9 2.07.81.5 1.72.75 2.74.75s1.91-.25 2.72-.75ZM183.93 123.73c-1.17-.67-2.09-1.59-2.74-2.76s-.99-2.48-.99-3.92.34-2.74 1.02-3.95c.68-1.2 1.6-2.15 2.78-2.85 1.17-.69 2.46-1.04 3.86-1.04s2.74.34 3.9 1.01c1.16.67 2.06 1.6 2.72 2.77s.99 2.48.99 3.92-.34 2.76-1.02 3.96c-.68 1.2-1.6 2.14-2.77 2.84-1.16.69-2.44 1.04-3.83 1.04s-2.75-.34-3.92-1.01Zm6.64-1.73c.81-.5 1.44-1.19 1.9-2.07.46-.88.68-1.86.68-2.95s-.23-2.09-.68-2.97c-.46-.88-1.09-1.57-1.9-2.07-.81-.5-1.72-.76-2.72-.76s-1.94.25-2.74.76c-.81.5-1.44 1.19-1.9 2.07-.46.88-.68 1.87-.68 2.97s.23 2.07.68 2.95c.46.88 1.09 1.57 1.9 2.07.81.5 1.72.75 2.74.75s1.91-.25 2.72-.75ZM206.81 109.47h5.16c1.71 0 3.19.32 4.42.97 1.23.65 2.17 1.53 2.81 2.66.64 1.13.96 2.4.96 3.82s-.33 2.7-1 3.85c-.67 1.15-1.62 2.05-2.87 2.71-1.24.66-2.7.99-4.36.99h-5.12v-15Zm8.27 12.29c.9-.46 1.59-1.11 2.05-1.94.46-.83.69-1.78.69-2.84s-.23-2.02-.69-2.85c-.46-.82-1.15-1.47-2.05-1.94-.9-.47-2-.7-3.27-.7h-2.76v10.96h2.76c1.28 0 2.37-.23 3.27-.69ZM136.16 116.33v1.85h3.97v3.3l-.11.08c-1.06.79-2.45 1.23-3.91 1.23-3.26 0-5.54-2.39-5.54-5.81 0-3.19 2.38-5.78 5.3-5.78 2.09 0 3.28.72 4.25 1.5l.06.05 1.39-1.66-.07-.05c-1.61-1.28-3.26-1.82-5.53-1.82-4.34 0-7.74 3.41-7.74 7.76v.04c0 4.55 3.2 7.72 7.79 7.72 2.86 0 4.94-1.22 6.18-2.25l.03-.03v-6.13h-6.08ZM0 109.36h10.42v1.99H2.28v5.08h7.25v1.99H2.28v6.17H0v-15.23ZM25.5 123.53c-1.17-.67-2.09-1.59-2.74-2.76s-.99-2.48-.99-3.92.34-2.74 1.02-3.95c.68-1.2 1.6-2.15 2.78-2.85 1.17-.69 2.46-1.04 3.86-1.04s2.74.34 3.9 1.01c1.16.67 2.06 1.6 2.72 2.77s.99 2.48.99 3.92-.34 2.76-1.02 3.96c-.68 1.2-1.6 2.14-2.77 2.84-1.16.69-2.44 1.04-3.83 1.04s-2.75-.34-3.92-1.01Zm6.64-1.72c.81-.5 1.44-1.19 1.9-2.07.46-.88.68-1.86.68-2.95s-.23-2.09-.68-2.97c-.46-.88-1.09-1.57-1.9-2.07-.81-.5-1.72-.76-2.72-.76s-1.94.25-2.74.76c-.81.5-1.44 1.19-1.9 2.07-.46.88-.68 1.87-.68 2.97s.23 2.07.68 2.95c.46.88 1.09 1.57 1.9 2.07.81.5 1.72.75 2.74.75s1.91-.25 2.72-.75ZM56.86 118.75l.3-.08c2.31-.66 3.58-2.27 3.58-4.53 0-1.31-.43-2.44-1.24-3.27-1-.98-2.51-1.5-4.36-1.5h-6.76v15.23h2.32v-5.46h3.77l3.81 5.4.04.06h2.71l-4.16-5.84Zm1.52-4.51c0 1.78-1.32 2.88-3.44 2.88H50.7v-5.69h4.22c2.17 0 3.46 1.05 3.46 2.81Z" class="cls-1"/></g></svg>
